<?xml version="1.0" encoding="UTF-8" standalone="no"?>
<svg xmlns:dc="http://purl.org/dc/elements/1.1/" xmlns:cc="http://creativecommons.org/ns#" xmlns:rdf="http://www.w3.org/1999/02/22-rdf-syntax-ns#" xmlns:svg="http://www.w3.org/2000/svg" xmlns="http://www.w3.org/2000/svg" id="svg105" version="1.1" viewBox="0 0 264.5833272454602 140.5266815475656" height="531.1244506835938" width="1000">
 <defs id="defs99" />
 <metadata id="metadata102">
  <rdf:RDF>
   <cc:Work rdf:about="">
    <dc:format>image/svg+xml</dc:format>
    <dc:type rdf:resource="http://purl.org/dc/dcmitype/StillImage" />
    <dc:title></dc:title>
   </cc:Work>
  </rdf:RDF>
 </metadata>
 <g transform="translate(-29.79019345238096,-9.953224058895585)" id="layer1">
  <g transform="matrix(0.5000630000629997,0,0,0.500063000063,4.737037149224671,-15.19994484427332)" id="g78">
   <path d="M 152.8,102 C 152.8,102.1 152.9,102.1 152.9,102.2 153,102.5 153.2,103 153.5,103.6 154.9,107.1 158,114.2 161.6,120.7 163.6,124.3 165.6,127.2 167.5,129.4 166,131.5 163.9,135.1 162.8,139.7 161.7,144.4 162.2,150.6 164.2,156.5 165,159 166.1,161.3 167.4,163.4 V 163.5 C 167.3,163.7 167.3,163.9 167.3,164.1 165.8,175.8 170.8,187.2 180.7,194.6 182.3,195.8 183.9,196.8 185.6,197.7 187,202.1 190,206.2 194.3,209.6 197.2,211.9 200.5,213.7 204,215 204,215 204,215.1 204.1,215.1 207.8,220.4 213.5,224.2 220.6,226.2 222.4,226.7 224.2,227.1 226,227.3 L 226.3,227.6 C 229.7,230.9 234.2,233.4 239.4,234.9 238.5,241.7000000000001 239.4,246.9 240.8,250.7000000000001 H 433.3 C 433.4,244.4 431.7,238.1000000000001 428.2,232.4 428.1,232.3 428,232.1 427.9,232 429.1,223.1 427.1,214.2 422,206.7 416.6,198.6 408.3,193.1 398.7,191.2 397.7,191 396.7,190.9 395.7,190.7 H 395.3 C 385.5,181.2 375.1,176.3 371.5,174.8 L 371.8,173.3 C 371.9,173.3 372.1,173.2 372.2,173.2 382.6,168.7 388.9,161 390.2,150.9 391.2,143 389,134.2 384.6,128.1 384.6,128 384.6,127.9 384.7,127.8 385.8,117.1 384.1,107.7 379.9,100 376.4,93.7 371.2,88.7 365.1,85.9 H 365 C 363.3,80.2 356,75.80000000000001 348.1,76 341.9,76.2 335.2,79.09999999999999 332.6,83.79999999999998 323.2,87.2 308.6,96 304.2,118.2 297.7,123.1 293.4,130.3 292.4,138.2 291.3,147 294.2,155.7 300.2,162.3 294.2,162.3 284.5,162.8 273.1,165.1 273,165.1 272.9,165.2 272.8,165.2 264,159 252.7,156.6 242.5,159.3 242.0999999999999,159.4 241.6999999999999,159.6 241.4,159.8 238.5999999999999,158.9 235.5,158.3 232.0999999999999,157.9 H 231.5 C 230,153.1 227.5,148.8 224,145.4 223.8,145.2 223.4,144.9 223.4,144.9 222.9,141.4 221.9,137.6 221.5,136.3 220.5,132.9 218.9,129.1 214.5,124.6 211.5999999999999,121.7 208.5999999999999,120 206.5,119 206.9,117.9 207.1999999999999,116.9 207.3,116.3 207.3,116.1 207.4,115.8 207.4,115.6 207.4,115.5 208.5,104.8 209.8,98.39999999999996 V 98.19999999999997 C 213.3,76.39999999999996 213.3,76.09999999999996 213.3,75.79999999999998 V 75.69999999999997 C 213.5,73.69999999999997 212.8,71.79999999999998 211.4,70.29999999999998 209.7,68.49999999999998 207.2,67.39999999999996 204.4,67.39999999999996 200.5,67.39999999999996 197,69.39999999999996 194.8,72.89999999999996 193.5,74.89999999999996 192.6,77.39999999999996 191.9,79.49999999999997 188.3,72.49999999999997 183.5,63.19999999999998 180.0999999999999,56.49999999999997 180,56.39999999999997 180,56.29999999999997 179.9,56.19999999999998 178.7,54.19999999999998 176,51.89999999999998 172.2,51.89999999999998 171.1,51.89999999999998 169.9,52.09999999999998 168.8,52.49999999999998 167.1,51.09999999999998 165.1,50.29999999999999 162.9,50.29999999999999 161.8,50.29999999999999 160.7,50.49999999999998 159.5999999999999,50.89999999999998 155.6999999999999,52.19999999999998 153.5,55.59999999999998 153.5,59.69999999999998 150.5,60.79999999999999 148.4,63.19999999999998 147.9,66.29999999999995 147.5,68.39999999999996 147.9,70.19999999999997 148.0999999999999,71.09999999999996 148.0999999999999,71.19999999999996 148.1999999999999,71.39999999999996 148.2999999999999,71.69999999999996 148.1999999999999,71.79999999999995 148.0999999999999,71.99999999999994 147.9999999999999,72.09999999999996 145.7999999999999,75.29999999999995 144.6999999999999,81.49999999999997 152.7999999999999,102" id="path41" />
   <path style="fill:white" class="st0" d="M 301.6,168.3 C 301.6,168.3 304.4,168.5 306.1,169.1 308.9,170.2 314.6,175.6 317.6,176.1 318.1,176.2 319.5,175.8 318,174.8 317.6,174.5 314.1,171.4 315.4,169.7 L 315.5,169.6 C 316,168.9 316.6,168.8 317.2,168.9 321.6,170 325.3,170.6 326.6,170.8 327.4,170.9 327.9,170.9 328.3,170.7000000000001 328.6,170.4 328.4,170.2000000000001 327.5,170.0000000000001 320.6999999999999,168.2000000000001 313.1999999999999,165.2000000000001 307.8999999999999,161.3000000000001 300.7999999999999,155.9000000000001 297.0999999999999,147.3000000000001 298.1999999999999,138.8000000000001 299,132.5000000000001 302.3,127.0000000000001 307.3999999999999,123.1000000000001 309.3999999999999,121.6000000000001 312.6999999999999,120.5000000000001 313.5999999999999,120.2000000000001 316.0999999999999,119.3000000000001 311.9999999999999,118.7000000000001 311.6999999999999,118.6000000000001 310.6999999999999,118.4000000000001 310.5999999999999,117.4000000000001 311.5,114.1000000000001 316.1999999999999,98.90000000000006 326.6999999999999,92.20000000000007 335.3,89.30000000000005 336.8,88.80000000000005 339.1999999999999,88.20000000000007 340.6999999999999,87.90000000000006 343.0999999999999,87.50000000000005 342.1999999999999,86.50000000000005 339.5,86.10000000000006 339.5,86.10000000000006 338.6,86.00000000000007 339,85.40000000000006 339.1,85.30000000000005 339.6,84.70000000000004 340.3999999999999,84.20000000000004 342.3999999999999,83.00000000000005 345.1999999999999,82.00000000000005 348.2999999999999,81.90000000000006 353.8999999999999,81.80000000000005 358.6999999999999,84.90000000000006 359.1999999999999,87.70000000000004 359.1999999999999,87.70000000000004 359.3999999999999,88.30000000000005 358.6999999999999,88.30000000000005 357.5999999999999,88.30000000000005 356.7999999999999,88.80000000000005 358.1999999999999,89.50000000000005 358.4999999999999,89.70000000000004 359.9999999999999,90.10000000000005 362.0999999999999,91.10000000000005 362.1999999999999,91.20000000000004 362.2999999999998,91.20000000000004 362.3999999999999,91.30000000000005 366.5999999999999,93.30000000000005 379.6999999999999,101.2000000000001 378.6999999999999,123.7000000000001 378.6999999999999,124.4000000000001 378.5999999999999,125 378.5999999999999,125.7000000000001 378.5999999999999,126.3 378.4999999999998,126.9000000000001 378.3999999999999,127.6000000000001 377.1999999999999,127.5000000000001 376.5999999999999,128.0000000000001 377.4999999999999,128.9000000000001 378.0999999999999,129.5000000000001 379.6999999999999,131.4000000000001 380.5999999999999,132.9000000000001 383.4999999999999,137.8000000000001 384.9999999999999,144.2000000000001 384.1999999999999,150.1000000000001 383.1999999999999,158.1000000000001 378.1999999999999,163.0000000000001 373.1999999999999,165.9000000000001 371,167.2000000000001 365.8,169.7000000000001 359.3999999999999,171.1000000000001 358.0999999999999,171.4000000000001 358.6999999999999,173.1000000000001 364.7999999999999,173.0000000000001 365.2999999999999,173.1000000000001 366.3999999999999,173.1000000000001 366.6999999999999,173.7000000000001 367.3999999999999,175.0000000000001 366.1999999999999,177.6000000000001 363.4999999999999,179.1000000000001 361.1999999999999,180.4000000000001 362.9999999999999,180.7000000000001 366.1999999999999,179.8 367.0999999999999,179.6000000000001 369.5999999999999,180.6000000000001 369.8999999999999,180.8 374.9999999999999,183.1000000000001 387.9999999999999,189.8 397.6999999999999,202.9 404.3999999999999,212.6 406.8999999999999,220.2000000000001 404.7999999999999,225 402.7999999999999,229.6 396.6999999999999,230.5 396.5999999999999,230.5 H 396.4999999999999 C 372.9999999999999,234.2 332.0999999999999,227.7 303.9999999999999,219.4 298.9999999999999,217.9 291.3999999999999,215.3 285.0999999999999,212.5 291.2999999999999,199 288.8999999999999,182 278.6999999999999,170.5 278.5999999999999,170.3 278.3999999999999,170.2 278.3,170.1 288.4,168.5 296.8,168.3 301.6,168.3" id="path43" />
   <path style="fill:white" class="st0" d="M 416.8,210.2 C 421.3,217 422.9,225.1 421.4,233 420.1,239.7 416.5000000000001,245.8 411.4,250.2 411.5000000000001,244.6 410.6,238.1 406.5000000000001,233 408.1000000000001,231.7 409.6000000000001,230 410.7000000000001,227.7 413.8000000000001,220.7 411.2000000000001,211.2 403.0000000000001,199.5 403.0000000000001,199.5 403.0000000000001,199.4 402.9,199.4 402.7000000000001,199.2 402.5000000000001,198.9 402.4,198.7 408.2000000000001,200.9 413.2000000000001,204.9 416.8,210.2 M 274.2000000000001,174.8 C 283.6,185.4 285.2000000000001,201.5 278.0000000000001,213.2 269.9,226.2 255.4000000000001,232.7 241.9000000000001,229.3 239.9000000000001,228.8 238.1000000000001,228.1 236.4000000000001,227.3 237.7000000000001,227.1 239.0000000000001,226.8 240.2000000000001,226.5 253.5000000000001,222.9 263.4000000000001,210.6 264.9000000000001,196 265.8000000000001,186.8 263.2000000000001,177.5 257.7000000000001,170.6 255.8000000000001,168.2 253.5000000000001,166.1 251.0000000000001,164.4 259.5000000000001,164.3 268.3000000000001,168.1 274.2000000000001,174.8" id="path45" />
   <path style="fill:white" class="st0" d="M 252.8,174.3 C 257.3,180 259.4,187.6 258.7,195.2 257.5,207.3 249.4,217.4 238.5,220.4 229.4,222.9 220.6,220.7 214.6,216.8 227.8,216.5 240.5,207.5 244.8,194.2 246.9,187.6 246.8,180.3 244.4,173.9 243.3,170.9 241.7,168.2 239.8,165.7 245.4,167.5 249.6,170.3 252.8,174.3" id="path47" />
   <path style="fill:white" class="st0" d="M 232.1,174.7 C 232.6,172.2 232.8,169.7 232.7,167.2 239.2,173.4 241.8,183.2 238.8,192.3 234.8,204.8 221.4,212.8 209,210 203.8,208.8 197.7,205.6 194,200.8 196.2,201.3 198.5,201.5 200.8,201.5 205.1,201.5 209.4,200.6 213.5,198.9 223.1,194.8 230,185.7 232.1,174.7" id="path49" />
   <path style="fill:white" class="st0" d="M 222.9,154.1 C 226.2,159.6 227.4,166.6 226.1,173.6 224.4,182.6 218.8,190 211.2,193.3 202.5,197.1 192.5,195.8 184.4,189.7 178,184.9 174.1,178.1 173.4,170.8 174,171.4 174.7,171.9 175.4,172.4 180.3,175.9 186.2,177.8 192.6,177.8 197,177.8 200.2,176.9 200.8,176.8 212.1,173.6 217.7,166.8 220.3,161.7 221.6,158.8 222.4,156.2 222.9,154.1" id="path51" />
   <path style="fill:white" class="st0" d="M 153.2,75 C 153.3,75 153.4,74.9 153.4,74.79999999999998 153.6,74.59999999999999 153.9,74.5 154.2,74.39999999999999 H 155.3 C 155.5,74.39999999999999 155.7,74.49999999999998 155.9,74.49999999999998 157.7,75.09999999999998 159,77.39999999999999 159.4,80.59999999999998 160.6,89.59999999999998 164.8,95.59999999999998 165,95.89999999999996 165.3,96.29999999999998 165.7,96.49999999999997 166.1,96.49999999999997 166.4,96.49999999999997 166.6,96.39999999999996 166.9,96.19999999999997 167.5,95.79999999999995 167.6,94.89999999999996 167.2,94.29999999999995 167.2,94.19999999999997 163.2,88.59999999999996 162.1,80.19999999999997 161.5,75.99999999999997 159.6,72.99999999999997 156.8,71.99999999999997 156.1,71.79999999999995 155.4,71.59999999999996 154.8,71.69999999999997 154.4,70.89999999999996 154.1,69.99999999999997 154,69.59999999999998 153.7,68.39999999999996 153.2,66.19999999999997 155.8,65.29999999999998 156,65.19999999999997 156.1,65.19999999999997 156.3,65.19999999999997 H 156.6 C 158.5,64.99999999999998 160.9,65.79999999999998 163.3,74.49999999999998 165.5,82.49999999999998 170.6,90.29999999999998 170.9,90.59999999999999 171.2,91 171.6,91.19999999999997 172,91.19999999999997 172.3,91.19999999999997 172.5,91.09999999999999 172.7,90.99999999999998 173.3,90.59999999999998 173.5,89.79999999999998 173.1,89.09999999999998 173.1,88.99999999999998 168,81.29999999999998 165.9,73.79999999999998 164.8,70.09999999999998 163.4,65.99999999999998 160.9,63.89999999999999 160.5,63 160.1,62 160,61.59999999999999 159.6,60.29999999999999 159.1,57.5 161.6,56.69999999999999 162.1,56.5 162.5,56.5 162.9,56.5 164.8,56.5 165.8,58.19999999999999 166.3,59.39999999999999 166.4,59.59999999999999 166.5,59.79999999999999 166.5,60 L 177.5,86.39999999999996 C 177.6,86.59999999999998 177.7,86.79999999999998 177.8,86.89999999999996 178.2,87.19999999999997 178.6,87.29999999999998 179.1,87.09999999999998 179.7,86.79999999999998 180,86.09999999999998 179.8,85.49999999999998 L 169.1,59.89999999999999 C 169.3,59.39999999999999 169.7,59 170.3,58.59999999999999 171,58.29999999999999 171.6,58.09999999999999 172.1,58.09999999999999 173.7,58.09999999999999 174.5,59.5 174.5,59.5 174.5,59.5 188.8,87.49999999999998 191.5,92.29999999999998 190.4,94.09999999999998 189.5,95.89999999999996 189.4,96.39999999999996 189.2,97.09999999999998 189.7,97.79999999999998 190,97.09999999999998 190.8,95.89999999999996 191.9,94.49999999999998 192.9,93.39999999999996 192.9,93.39999999999996 193,93.29999999999998 193,93.19999999999997 193.7,91.99999999999997 195.8,86.39999999999996 196.6,84.69999999999997 197.2,82.09999999999998 198.3,78.69999999999997 199.7,76.49999999999997 200.9,74.59999999999996 202.6,73.89999999999996 204.1,73.89999999999996 205.7,73.89999999999996 207,74.69999999999997 206.9,75.59999999999998 206.9,75.99999999999998 203.4,97.59999999999998 203.4,97.59999999999998 202.5,102.1 201.7,108.6 201.2,112.4 201.2,113.3 201.1,114.2 200.9,115.1 V 115.4 C 200.9,115.4 200.9,115.6 200.8,115.9 200.1,119.2 198.8,121.7 198.8,121.7 L 199.9,126.9 C 200.3,129.1 200.8,131.4 201,132.1 201.8,135 200.8,136.7 201.3,137.3 202,138.1 203.9,134.2 204.3,132.2 204.7,130.6 204.1,127.3 203.5,125 205.1,125.7 207.4,127.1 209.6,129.2 213.3,132.9 214.4,135.9 215.1,138.2 215.8,140.6 217,145.8 217.1,148.5 217.2,151.3 216.2,166 198.8,171 198.8,171 196.1,171.8 192.3,171.8 188.4,171.8 183.3,171 178.7,167.6 170.3,161.6 167,148.5 168.6,141.5 169.4,138.2 170.8,135.6 171.9,133.9 172.7,134.4 173.5,134.8 174.4,135.1 L 174.9,137.5 C 175,137.8 176.3,144.4 178.9,146.5 180.4,147.7 182.9,147.8 183.6,147.8 184.4,147.8 186.2,147.7 186.5,146.9 186.6,146.8 186.6,146.4 186.3,146.1 186.2,146 185.9,145.8 185.5,145.6 184.3,144.9 181.9,143.7 181.4,141.4 181.1,140.1 180.1,135.6 179.4,133 182,130.9 182.3,128.7 178.9,129.4 176.9,129.8 175,128.9 173.5,127.7 166.7,121.7 159.5,103.4 158.1,100.2 152.7,85 151.4,77.2 153.2,75 M 427,250.8 H 419.5 C 421.9,247.9 423.9,244.6 425.4,241.1 426.5,244.2 427.1,247.5 427,250.8 M 245.3,236.1 C 246.6,236.2 247.9,236.3 249.1,236.3 261.8,236.3 274.2000000000001,229.6 282.1,218 288.8,221 296.8,223.8 302.3,225.5 317.8,230.1 335.5,233.7 352.2,235.9 362.7,237.2 372.3,237.9 380.8,237.9 387.1,237.9 392.7,237.5 397.5,236.8 397.8,236.8 399.1,236.6 400.7,236 404.5,240 405.3,245.8 405,250.8 H 247.4 C 245.9,247.8 244.5,243 245.3,236.1" id="path53" />
   <path d="M 329.4,138.7 C 329.3,138.2 328.6,138.2 328.4,138.2 327.8,138.2 327,138.4 326.4,138.6 324.8,139.2 323.6,141.1 323.6,142.2 323.6,142.4 323.7,142.5 323.8,142.6 323.9,142.7 324.1,142.8 324.4,142.8 324.7,142.8 324.9,142.6 324.9,142.3 324.9,142 325.1,141.5 325.5,141.1 325.9,140.7 326.6,140 328.6,139.6 329.1,139.5 329.6,139.2 329.4,138.7 M 343.8,127.3 C 342.6,129.1 341.2,130.3 340,130.3 H 339.6 C 341.7000000000001,129.2 343.4,126.3 343.7000000000001,122.9 344.1,118.3 341.9,114.3 338.8000000000001,114 337.3000000000001,113.9 335.9000000000001,114.6 334.7000000000001,115.9 335.8000000000001,115.9 336.8000000000001,117 336.8000000000001,118.5 336.9000000000001,120 336.0000000000001,121.2 334.8000000000001,121.3 333.9000000000001,121.3 333.0000000000001,120.6 332.7000000000001,119.5 332.5000000000001,120.3 332.3000000000001,121.1 332.2000000000001,121.9 331.9,124.7 332.7000000000001,127.3 334.0000000000001,129 333.8000000000001,128.8 333.6000000000001,128.7 333.5000000000001,128.5 332.5000000000001,127.3 331.8000000000001,125.5 331.5000000000001,123.3 331.4,122.3 331.3000000000001,121.3 331.4,120.3 331.6,117.8 333.1,109.9 339.4,110.6 344.2000000000001,111.1 345.5000000000001,114.6 345.8,117.7 V 118.1 C 346.1,121.1 345.5,123.2 344.8,125.2 344.6,125.9 344.2,126.7 343.8,127.3 M 347.7,120.2 C 347.8,114.9 347.1,110.9 343.3,108.5 L 342.1,107.9 C 340.5,107.3 338.6,107.2 336.9,107.7 334.9,108.2 333.4,109.7 332.3,111.4 331.2,113.2 330.6,115.2 330.2,117.3 329.8,119.4 329.6,121.5 329.9,123.6 330.2,125.7 330.9,128 332.3,129.7 333,130.6 333.9,131.2 334.9,131.5 335.8,131.8 336.7,132 337.6,132.1 337.6,132.1 339.1,132.3 340.1,132.2 343.9,131.9 347.6,126 347.7,120.2 M 358.7,148.8 C 357.3,149.9 355.8,150.8 354.1,151.4 352.4,151.9 350.5,152 348.7,151.9 346.9,151.7 345.2,151.3 343.5,150.5999999999999 341.7,149.7999999999999 340.2,148.5 338.8,147.0999999999999 345.3,148.6999999999999 352.1,149.5 358.7,148.7999999999999 M 362.4,145.7999999999999 C 358.5,146.6999999999999 354.4,146.7999999999999 350.3,146.3999999999999 343.6999999999999,145.8999999999999 337.1,144.3999999999999 330.9,141.7999999999999 330.3,141.5999999999999 329.8,141.2999999999999 329.3,141.0999999999999 329,141 328.8,140.7999999999999 328.5,140.6999999999999 327.6,140.3999999999999 326.8,141 326.6999999999999,141.8999999999999 326.6999999999999,142.5999999999999 327.0999999999999,142.9999999999999 327.6999999999999,143.2999999999999 329.3,144.1999999999999 331.0999999999999,144.7999999999999 332.8999999999999,145.3999999999999 334.3999999999999,146.0999999999999 335.5,147.4999999999999 336.6999999999999,148.5999999999999 338.0999999999999,149.9999999999999 339.5999999999999,151.3999999999999 341.3999999999999,152.3999999999999 344.6999999999999,154.2999999999999 348.8999999999999,154.8999999999999 352.5999999999999,154.3999999999999 354.5999999999999,154.0999999999999 356.3999999999999,153.3999999999999 358.0999999999999,152.3999999999999 359.2999999999999,151.5999999999999 360.3999999999999,150.6999999999999 361.4999999999999,149.7999999999999 362.1999999999999,149.2999999999999 362.7999999999999,148.6999999999999 363.5999999999999,148.2999999999999 363.9999999999999,148.0999999999999 367.0999999999999,146.7999999999999 368.5999999999999,145.8999999999999 368.5999999999999,146.4999999999999 368.5999999999999,146.9999999999999 368.9999999999999,146.9999999999999 369.3999999999999,147.0999999999999 369.7999999999999,146.2999999999999 369.8999999999999,145.6999999999999 370.0999999999999,144.9999999999999 369.8999999999999,144.3999999999999 369.6999999999999,143.9999999999999 369.4999999999999,143.5999999999999 368.7999999999999,142.9999999999999 368.1999999999999,142.8999999999999 367.4999999999999,142.7999999999999 367.3999999999999,143.3999999999999 367.5999999999999,143.5999999999999 L 367.8999999999999,143.8999999999999 C 367.6999999999999,143.9999999999999 367.3999999999999,144.1999999999999 367.1999999999999,144.2999999999999 365.5999999999999,144.8999999999999 363.9999999999999,145.3999999999999 362.3999999999999,145.7999999999999 M 370.3999999999999,125.3999999999999 C 370.1999999999999,126.3999999999999 369.8999999999999,127.3999999999999 369.4999999999999,128.2999999999999 368.6999999999999,130.2999999999999 367.4999999999999,131.8999999999999 366.2999999999999,132.7999999999999 365.7999999999999,133.1999999999999 365.1999999999999,133.3999999999999 364.4999999999999,133.4999999999999 366.4999999999999,132.2999999999999 368.0999999999999,129.4999999999999 368.3999999999999,126.1999999999999 368.7999999999998,121.5999999999999 366.6999999999999,117.5999999999999 363.5999999999999,117.2999999999999 362.0999999999999,117.1999999999999 360.6999999999999,117.8999999999999 359.5999999999999,119.1999999999999 360.6999999999999,119.1999999999999 361.5999999999999,120.2999999999999 361.6999999999999,121.7999999999999 361.7999999999999,123.2999999999999 360.8999999999999,124.5999999999999 359.7999999999999,124.5999999999999 358.8999999999999,124.6999999999999 358.0999999999999,123.8999999999999 357.7999999999999,122.7999999999999 357.5999999999999,123.5999999999999 357.3999999999999,124.3999999999999 357.2999999999999,125.1999999999999 356.9999999999999,128.2999999999999 357.8999999999999,131.0999999999999 359.3999999999999,132.6999999999999 358.5,132.0999999999999 357.5999999999999,130.7999999999999 357.0999999999999,129.0999999999999 356.8999999999999,128.2999999999999 356.6999999999999,127.5 356.5999999999999,126.6999999999999 356.3999999999999,124.5999999999999 356.3999999999999,122.4999999999999 357.3999999999999,119.5999999999999 357.3999999999999,119.5 357.5,119.2999999999999 357.5,119.1999999999999 358.6,116.2999999999999 360.6999999999999,113.2999999999999 365.3,113.9999999999999 371.5,114.9999999999999 370.8,122.8999999999999 370.4,125.3999999999999 M 371.9,116.6999999999999 C 371.4,114.7999999999999 370.3,112.9999999999999 368.6,111.9999999999999 367.2,111.1999999999999 365.4,110.7999999999999 363.7,110.8999999999999 363.2,110.8999999999999 362.8,110.9999999999999 362.4,111.1999999999999 358.2,112.4999999999999 356.6,116.1999999999999 355.3,121.2999999999999 353.9,126.8999999999999 355.8,133.4999999999999 359.4,134.5999999999999 360.3,134.9 361.7,135.0999999999999 361.7,135.0999999999999 362.6,135.2999999999999 363.5,135.2999999999999 364.4,135.2999999999999 365.4,135.1999999999999 366.4,134.8999999999999 367.3,134.1999999999999 369,132.8999999999999 370.3,130.8999999999999 371.1,129 371.9,127 372.3,125 372.4,122.9 372.6,120.8 372.5,118.7 371.9,116.7" id="path55" />
   <path style="fill:#fce500" class="st1" d="M 79.4,250.8 74.80000000000001,263.3 H 574.6 L 579.2,250.8 Z" id="path57" />
   <path style="fill:#27509b" class="st2" d="M 548.1,280 535.3999999999997,314.4 C 535.6,310.9 536.2999999999999,297.2 536.6999999999999,289.4 536.8999999999997,286.2 536.1999999999999,283.7 534.5999999999999,282 532.6999999999999,280 530.1999999999999,280 530.1999999999999,280 H 502 L 483.6,330.2 H 504.1 L 517.2,294.7 515.6,330.2 H 550 L 568.5,280 Z M 469.1,330.2 487.6,280 H 463.3 L 444.8,330.2 Z M 441.7000000000001,313.5 H 417.9 L 430.2000000000001,280 H 406.6 L 388.1,330.2 H 435.6 Z M 388.2000000000001,293.2 393.1,280.1 H 342.5 L 324,330.2 H 375.2 L 380.2,316.7 H 351.9 L 354,311.1 H 380.4 L 384.9,298.8 H 358.5 L 360.5,293.1999999999999 Z M 310.3000000000001,330.2 328.8000000000001,280 H 305.7000000000001 L 299.0000000000001,298.1 H 286.8000000000001 L 293.5000000000001,280 H 270.3000000000001 L 251.9000000000001,330.2 H 275 L 281.3,313.2 H 293.5 L 287.2,330.2 Z M 250.5000000000001,298.4 257.8000000000001,280.8 C 245.2000000000001,277.6999999999999 232.5000000000001,279.1999999999999 225.9000000000001,280.5 211.2000000000001,283.5 191.2000000000001,294.3 191.5000000000001,314 191.6000000000001,325.3999999999999 205.4000000000001,331.6999999999999 221.1000000000001,331.3 229.9000000000001,331.1 238.4000000000001,329.4 239.4000000000001,329.3 L 245.3000000000001,314.1 C 237.6000000000001,315.3 230.1000000000001,317.2 224.3000000000001,314.8 213.8000000000001,310.6 220.3000000000001,299.6999999999999 227.7000000000001,296.3 231.0000000000001,294.8 235.4000000000001,293.4 240.8000000000001,293.5 243.0000000000001,293.5 248.4000000000001,293.6 250.5000000000001,298.3999999999999 M 173.6000000000001,330.1999999999999 192,280 H 167.7 L 149.2,330.2 Z M 135.3000000000001,330.1999999999999 153.8000000000001,280 H 119.5000000000001 L 101.8000000000001,307 C 101.8000000000001,307 102.9000000000001,292.8999999999999 103.2000000000001,289.5 103.4000000000001,286.8999999999999 103.1000000000001,280 96.80000000000005,280 H 68.59999999999999 L 50.1,330.1999999999999 H 72.09999999999999 L 85.5,293.8999999999999 82.7,330.1999999999999 H 102.3 L 126.3,294.5999999999999 113.2,330.1999999999999 Z" id="path59" />
  </g>
 </g>
</svg>
